<?xml version="1.0" encoding="utf-8"?>
<!-- Generator: Adobe Illustrator 22.0.1, SVG Export Plug-In . SVG Version: 6.00 Build 0)  -->
<svg version="1.1" id="Capa_1" xmlns="http://www.w3.org/2000/svg" xmlns:xlink="http://www.w3.org/1999/xlink" x="0px" y="0px"
	 viewBox="0 0 512 512" style="enable-background:new 0 0 512 512;" xml:space="preserve">
<style type="text/css">
	.st0{fill:#FFFFFF;}
</style>
<g>
	<g>
		<path class="st0" d="M380.9,27h-65.2c-34.4,0-67,13.2-91.6,37.3c-22.7,22.2-36.4,51.3-39,82.7H70c-38.6,0-70,31.4-70,70v154
			c0,38.6,31.4,70,70,70h59.9l41.1,41.1c1.9,1.9,4.5,2.9,7.1,2.9c1.3,0,2.6-0.2,3.8-0.8c3.7-1.5,6.2-5.2,6.2-9.2l0-34h98
			c38.6,0,70-31.4,70-70v-81.9h24.9c12.1,0,24.1-1.6,35.6-4.9l32.5,32.5c1.9,1.9,4.5,2.9,7.1,2.9c1.3,0,2.6-0.2,3.8-0.8
			c3.7-1.5,6.2-5.2,6.2-9.2v-52c29.2-25,45.9-61,45.9-99.6C512,85.8,453.2,27,380.9,27z M336,371c0,27.6-22.4,50-50,50H178
			c-5.5,0-10,4.5-10,10l0,19.9L144.1,427c-1.5-3.5-5.1-6-9.2-6H70c-27.6,0-50-22.4-50-50V217c0-27.6,22.4-50,50-50h216
			c27.6,0,50,22.4,50,50V371z M449.9,245.1c-2.4,1.9-3.8,4.8-3.8,7.8v32.6l-19.7-19.7c-2.7-2.7-6.6-3.6-10.2-2.4
			c-11.3,3.8-23.2,5.7-35.3,5.7H356V217c0-38.6-31.4-70-70-70h-80.8c5.6-55.8,53.6-100,110.5-100h65.2C442.2,47,492,96.8,492,158.1
			C492,192.2,476.7,223.9,449.9,245.1z"/>
	</g>
</g>
<g>
	<g>
		<path class="st0" d="M452.7,113.5C436.5,84.8,406.1,67,373.2,67h-43.7c-5.5,0-10,4.5-10,10s4.5,10,10,10h43.7
			c25.6,0,49.4,13.9,62,36.3c1.8,3.3,5.2,5.1,8.7,5.1c1.7,0,3.3-0.4,4.9-1.3C453.7,124.4,455.4,118.3,452.7,113.5z"/>
	</g>
</g>
<g>
	<g>
		<path class="st0" d="M454.3,148C454.3,148,454.3,148,454.3,148c-5.5,0-10,4.6-10,10.1c0,0,0,0.1,0,0.1c0.1,5.5,4.5,10,10,10
			c0,0,0.1,0,0.1,0c5.5,0,9.9-4.6,9.9-10.1C464.3,152.5,459.8,148,454.3,148z"/>
	</g>
</g>
</svg>
