<?xml version="1.0" encoding="utf-8"?>
<!-- Generator: Adobe Illustrator 22.0.1, SVG Export Plug-In . SVG Version: 6.00 Build 0)  -->
<svg version="1.1" id="Layer_1" xmlns="http://www.w3.org/2000/svg" xmlns:xlink="http://www.w3.org/1999/xlink" x="0px" y="0px"
	 viewBox="0 0 512 512" style="enable-background:new 0 0 512 512;" xml:space="preserve">
<style type="text/css">
	.st0{fill:url(#SVGID_1_);}
	.st1{fill:url(#SVGID_2_);}
	.st2{fill:url(#SVGID_3_);}
</style>
<g>
	<g>
		<linearGradient id="SVGID_1_" gradientUnits="userSpaceOnUse" x1="96.4434" y1="34.6491" x2="415.5523" y2="353.758">
			<stop  offset="0" style="stop-color:#CC0465"/>
			<stop  offset="1" style="stop-color:#321575"/>
		</linearGradient>
		<path class="st0" d="M359.5,40.6c-24.5,0-47.9,5.8-69.5,17.2c-2.3,1.2-4.1,3.3-4.9,5.8l-30.6,96.5c-1,3-0.4,6.4,1.5,8.9
			c1.9,2.6,4.9,4.1,8.1,4.1h35.5L259.1,301c-1,3-0.4,6.4,1.5,8.9c1.9,2.6,4.9,4.1,8.1,4.1h35.3l-41.7,126.8l0-95.1
			c0-2.7-1.1-5.2-2.9-7.1s-4.4-2.9-7.1-2.9h-35.5l40.5-127.9c1-3,0.4-6.4-1.5-8.9c-1.9-2.6-4.9-4.1-8.1-4.1h-35.5l35.4-111.8
			c1.3-4-0.1-8.4-3.4-10.9c-26.6-20.6-58.3-31.4-91.7-31.4C68.4,40.6,0,110.7,0,196.8c0,47.1,38,104.8,112.9,171.6
			c56.7,50.6,116.9,90.4,134,101.4c1.6,1.1,3.5,1.6,5.4,1.6c1.6,0,3.3-0.4,4.8-1.2c2.3-1.3,4-3.4,4.8-5.9c1.8,1.3,3.8,1.9,5.9,1.9
			c1.9,0,3.8-0.5,5.5-1.7c23.3-15.4,83.3-56.6,136.8-106C477.7,295.9,512,241.5,512,196.8C512,110.7,443.6,40.6,359.5,40.6z
			 M242.2,442.8c-25.6-17.2-71.9-50-116.1-89.4C56.7,291.5,20,237.4,20,196.8c0-75.1,59.4-136.2,132.5-136.2c26.6,0,52,8,73.9,23.2
			l-37.4,118c-1,3-0.4,6.4,1.5,8.9c1.9,2.6,4.9,4.1,8.1,4.1h35.5l-40.5,127.9c-1,3-0.4,6.4,1.5,8.9c1.9,2.6,4.9,4.1,8.1,4.1h39.1
			L242.2,442.8z M286.3,431.5l40.9-124.4c1-3,0.5-6.4-1.4-9s-4.9-4.1-8.1-4.1h-35.5l40.5-127.9c1-3,0.4-6.4-1.5-8.9
			c-1.9-2.6-4.9-4.1-8.1-4.1h-35.5l25.2-79.5c17.7-8.7,36.8-13,56.6-13c73.1,0,132.5,61.1,132.5,136.2
			C492,264.7,389.8,359.6,286.3,431.5z"/>
	</g>
</g>
<g>
	<g>
		<linearGradient id="SVGID_2_" gradientUnits="userSpaceOnUse" x1="375.4953" y1="85.3051" x2="453.3683" y2="163.178">
			<stop  offset="0" style="stop-color:#CC0465"/>
			<stop  offset="1" style="stop-color:#321575"/>
		</linearGradient>
		<path class="st1" d="M455.2,152.3c-14.4-32.8-42.6-57-75.3-64.7c-5.4-1.3-10.8,2.1-12,7.4c-1.3,5.4,2.1,10.8,7.4,12
			c26.7,6.3,49.7,26.2,61.6,53.3c1.6,3.7,5.3,6,9.2,6c1.3,0,2.7-0.3,4-0.8C455.1,163.3,457.4,157.4,455.2,152.3z"/>
	</g>
</g>
<g>
	<g>
		<linearGradient id="SVGID_3_" gradientUnits="userSpaceOnUse" x1="447.4094" y1="178.6084" x2="461.5703" y2="192.7693">
			<stop  offset="0" style="stop-color:#CC0465"/>
			<stop  offset="1" style="stop-color:#321575"/>
		</linearGradient>
		<path class="st2" d="M464.4,184.1c0-0.1,0-0.2,0-0.3c-1-5.4-6.3-9-11.7-8c-5.3,1-8.9,6.1-8,11.5c0,0.1,0,0.2,0.1,0.4
			c1,4.8,5.1,8,9.8,8c0.7,0,1.3-0.1,2-0.2C461.8,194.4,465.2,189.4,464.4,184.1z"/>
	</g>
</g>
</svg>
