<?xml version="1.0" encoding="utf-8"?>
<!-- Generator: Adobe Illustrator 22.0.1, SVG Export Plug-In . SVG Version: 6.00 Build 0)  -->
<svg version="1.1" id="Capa_1" xmlns="http://www.w3.org/2000/svg" xmlns:xlink="http://www.w3.org/1999/xlink" x="0px" y="0px"
	 viewBox="0 0 512 512" style="enable-background:new 0 0 512 512;" xml:space="preserve">
<style type="text/css">
	.st0{fill:#FFFFFF;}
</style>
<g>
	<g>
		<path class="st0" d="M101,253.1c-55.7,0-101,45.3-101,101c0,23.1,8,45.6,22.5,63.5c0,0,0.1,0.1,0.1,0.1l7.7,9.9
			c3.4,4.4,9.7,5.1,14,1.7c4.4-3.4,5.1-9.7,1.7-14l-7.5-9.6c-0.1-0.1-0.2-0.3-0.3-0.4C26.5,390.8,20,372.7,20,354.1
			c0-44.7,36.3-81,81-81s81,36.3,81,81c0,18.8-6.6,37.1-18.5,51.6c-0.3,0.3-0.5,0.6-0.7,1L101,485.7l-4.5-5.8
			c-3.4-4.4-9.7-5.1-14-1.7c-4.4,3.4-5.1,9.7-1.7,14l12.4,15.9c1.9,2.4,4.8,3.8,7.9,3.8c0,0,0,0,0,0c3.1,0,6-1.4,7.9-3.8l70.2-90
			c0.1-0.2,0.3-0.4,0.4-0.5c14.5-17.9,22.5-40.4,22.5-63.5C202,298.4,156.7,253.1,101,253.1z"/>
	</g>
</g>
<g>
	<g>
		<path class="st0" d="M72.2,448.8l-0.3-0.4c-3.4-4.4-9.7-5.1-14-1.7c-4.4,3.4-5.1,9.7-1.7,14l0.3,0.4c2,2.5,4.9,3.8,7.9,3.8
			c2.2,0,4.3-0.7,6.1-2.1C74.8,459.4,75.6,453.2,72.2,448.8z"/>
	</g>
</g>
<g>
	<g>
		<path class="st0" d="M101,297.5c-32,0-58,26-58,58s26,58,58,58s58-26,58-58S133,297.5,101,297.5z M101,393.5c-21,0-38-17-38-38
			s17-38,38-38s38,17,38,38S122,393.5,101,393.5z"/>
	</g>
</g>
<g>
	<g>
		<path class="st0" d="M507,56.8L411,1.3c-3.1-1.8-6.9-1.8-10,0s-5,5.1-5,8.7v171h-16.6c-5.5,0-10,4.5-10,10s4.5,10,10,10h53.1
			c5.5,0,10-4.5,10-10s-4.5-10-10-10H416v-54.4l91-52.5c3.1-1.8,5-5.1,5-8.7C512,61.9,510.1,58.6,507,56.8z M416,103.5v-15V27.3
			l66,38.1L416,103.5z"/>
	</g>
</g>
<g>
	<g>
		<path class="st0" d="M318.3,92.4h-2.5c-5.5,0-10,4.5-10,10s4.5,10,10,10h2.5c5.5,0,10-4.5,10-10S323.9,92.4,318.3,92.4z"/>
	</g>
</g>
<g>
	<g>
		<path class="st0" d="M211,243.2c-1.4-0.4-2.8-0.9-4.2-1.4c-5.2-1.9-10.9,0.7-12.9,5.8s0.7,10.9,5.8,12.9c1.8,0.7,3.6,1.3,5.4,1.8
			c1,0.3,1.9,0.4,2.9,0.4c4.3,0,8.3-2.8,9.6-7.1C219.3,250.3,216.3,244.8,211,243.2z"/>
	</g>
</g>
<g>
	<g>
		<path class="st0" d="M229.5,101.8c-0.8-5.5-5.8-9.3-11.3-8.5c-1.9,0.3-3.8,0.6-5.6,1c-5.4,1.1-8.9,6.4-7.7,11.8c1,4.7,5.1,8,9.8,8
			c0.7,0,1.4-0.1,2.1-0.2c1.4-0.3,2.9-0.6,4.3-0.8C226.4,112.3,230.2,107.3,229.5,101.8z"/>
	</g>
</g>
<g>
	<g>
		<path class="st0" d="M175.9,217.8c-0.9-1.2-1.7-2.4-2.4-3.7c-2.9-4.7-9.1-6.2-13.8-3.3c-4.7,2.9-6.2,9.1-3.3,13.8
			c1,1.6,2.1,3.2,3.2,4.8c1.9,2.7,5,4.2,8.2,4.2c2,0,4-0.6,5.8-1.8C178,228.6,179.1,222.3,175.9,217.8z"/>
	</g>
</g>
<g>
	<g>
		<path class="st0" d="M182.2,118.6c-4-3.8-10.3-3.7-14.1,0.2c-1.3,1.4-2.6,2.8-3.8,4.2c-3.6,4.2-3.1,10.5,1.2,14.1
			c1.9,1.6,4.2,2.4,6.5,2.4c2.8,0,5.7-1.2,7.6-3.5c0.9-1.1,1.9-2.2,3-3.3C186.3,128.8,186.2,122.5,182.2,118.6z"/>
	</g>
</g>
<g>
	<g>
		<path class="st0" d="M155.1,160.9c-5.5-0.6-10.4,3.4-11,8.9c-0.2,1.9-0.4,3.8-0.4,5.7c-0.2,5.5,4,10.2,9.6,10.4c0.1,0,0.3,0,0.4,0
			c5.3,0,9.8-4.2,10-9.6c0.1-1.5,0.2-2.9,0.3-4.4C164.6,166.4,160.6,161.5,155.1,160.9z"/>
	</g>
</g>
<g>
	<g>
		<path class="st0" d="M270.2,92.4h-5.1c-5.5,0-10,4.5-10,10s4.5,10,10,10h5.1c5.5,0,10-4.5,10-10S275.7,92.4,270.2,92.4z"/>
	</g>
</g>
<g>
	<g>
		<path class="st0" d="M256,246h-2.5c-5.5,0-10,4.5-10,10c0,5.5,4.5,10,10,10h2.5c5.5,0,10-4.5,10-10C266,250.5,261.5,246,256,246z"
			/>
	</g>
</g>
<g>
	<g>
		<path class="st0" d="M219.5,399.6H217c-5.5,0-10,4.5-10,10s4.5,10,10,10h2.5c5.5,0,10-4.5,10-10S225,399.6,219.5,399.6z"/>
	</g>
</g>
<g>
	<g>
		<path class="st0" d="M318.4,399.6h-4.9c-5.5,0-10,4.5-10,10s4.5,10,10,10h4.9c5.5,0,10-4.5,10-10S323.9,399.6,318.4,399.6z"/>
	</g>
</g>
<g>
	<g>
		<path class="st0" d="M406.7,360c-4.9-2.6-10.9-0.8-13.5,4.1c-0.7,1.3-1.4,2.5-2.1,3.7c-2.9,4.7-1.5,10.9,3.2,13.8
			c1.6,1,3.5,1.5,5.3,1.5c3.3,0,6.6-1.7,8.5-4.7c1-1.6,1.9-3.2,2.8-4.8C413.4,368.7,411.6,362.6,406.7,360z"/>
	</g>
</g>
<g>
	<g>
		<path class="st0" d="M269,399.6H264c-5.5,0-10,4.5-10,10s4.5,10,10,10h4.9c5.5,0,10-4.5,10-10S274.5,399.6,269,399.6z"/>
	</g>
</g>
<g>
	<g>
		<path class="st0" d="M420.7,324.9c-0.2-1.8-0.4-3.7-0.7-5.5c-0.8-5.5-6-9.2-11.4-8.4c-5.5,0.8-9.2,6-8.4,11.4
			c0.2,1.4,0.4,2.8,0.5,4.3c0.5,5.2,4.8,9.1,9.9,9.1c0.3,0,0.6,0,0.9,0C417.1,335.3,421.1,330.4,420.7,324.9z"/>
	</g>
</g>
<g>
	<g>
		<path class="st0" d="M398.6,274.6c-1.2-1.4-2.5-2.7-3.9-4c-4-3.9-10.3-3.8-14.1,0.2c-3.9,4-3.8,10.3,0.2,14.1c1,1,2,2,3,3.1
			c2,2.2,4.7,3.3,7.4,3.3c2.4,0,4.8-0.9,6.7-2.6C402,285,402.3,278.7,398.6,274.6z"/>
	</g>
</g>
<g>
	<g>
		<path class="st0" d="M350.8,247.6c-1.8-0.4-3.7-0.6-5.5-0.9c-5.5-0.7-10.5,3.2-11.2,8.7c-0.7,5.5,3.2,10.5,8.7,11.2
			c1.4,0.2,2.8,0.4,4.2,0.7c0.6,0.1,1.3,0.2,1.9,0.2c4.7,0,8.9-3.3,9.8-8.1C359.8,253.9,356.2,248.6,350.8,247.6z"/>
	</g>
</g>
<g>
	<g>
		<path class="st0" d="M375.8,398.1c-2.3-5-8.3-7.2-13.3-4.8c-1.3,0.6-2.6,1.2-3.9,1.7c-5.1,2-7.7,7.8-5.7,13
			c1.5,3.9,5.3,6.4,9.3,6.4c1.2,0,2.4-0.2,3.6-0.7c1.7-0.7,3.5-1.4,5.1-2.2C376,409,378.2,403.1,375.8,398.1z"/>
	</g>
</g>
<g>
	<g>
		<path class="st0" d="M299.5,246H297c-5.5,0-10,4.5-10,10c0,5.5,4.5,10,10,10h2.5c5.5,0,10-4.5,10-10
			C309.5,250.5,305,246,299.5,246z"/>
	</g>
</g>
</svg>
