<?xml version="1.0" encoding="utf-8"?>
<!-- Generator: Adobe Illustrator 22.1.0, SVG Export Plug-In . SVG Version: 6.00 Build 0)  -->
<svg version="1.1" id="Layer_1" xmlns="http://www.w3.org/2000/svg" xmlns:xlink="http://www.w3.org/1999/xlink" x="0px" y="0px"
	 viewBox="0 0 867.1 210.8" style="enable-background:new 0 0 867.1 210.8;" xml:space="preserve">
<style type="text/css">
	.st0{display:none;}
	.st1{display:inline;fill:#CC0465;}
	.st2{display:inline;}
	.st3{font-family:'Comfortaa-Bold';}
	.st4{font-size:245.6871px;}
	.st5{fill:#FFFFFF;}
	.st6{display:none;fill:#FFFFFF;}
	.st7{fill:#CC0465;}
</style>
<g id="moolah" class="st0">
	<path id="m_1_" class="st1" d="M93.7,196.8c3.4-0.1,6.2-1.3,8.3-3.5c2.3-2.4,3.4-5.3,3.4-8.9v-74.8c0-9.1,2.7-16.6,8.2-22.4
		c5.4-5.9,12.4-8.8,20.9-8.8c8.3,0,14.9,2.6,19.9,7.7c5,5.1,7.4,12.6,7.4,22.6v89.8c0,3.6,1.2,6.6,3.5,8.9c2.4,2.4,5.3,3.5,8.9,3.5
		c3.7,0,6.7-1.2,9-3.5c2.3-2.4,3.4-5.3,3.4-8.9v-89.8c0-16.6-4.4-29.5-13.1-38.8c-8.7-9.3-20.1-13.9-34.3-13.9
		c-8.9,0-17.1,1.7-24.4,5.1c-7.3,3.4-13.4,8.1-18.3,14.2l-3.3,7.7L90,75.2c-4.9-6-11-10.7-18.3-14.2c-7.3-3.4-15.5-5.1-24.4-5.1
		c-14.2,0-25.6,4.6-34.3,13.9C4.4,79.1,0,92,0,108.6v88.8c0,3.6,1.1,6.6,3.4,8.9c2.3,2.4,5.3,3.5,9,3.5c3.6,0,6.5-1.2,8.9-3.5
		c2.4-2.4,3.5-5.3,3.5-8.9v-88.8c0-9.9,2.5-17.4,7.4-22.6c5-5.1,11.6-7.7,19.9-7.7c8.5,0,15.4,2.9,20.9,8.8
		c5.5,5.9,8.2,13.3,8.2,22.4v74.8c0,3.6,1.1,6.6,3.4,8.9c2.1,2.2,4.9,3.4,8.3,3.5H93.7z"/>
	<path id="o1" class="st1" d="M239.5,182.9c-10.2-5.8-18.2-13.8-23.9-24c-5.7-10.2-8.5-21.9-8.5-34.9c0-13.2,2.8-24.9,8.5-35.1
		c5.7-10.2,13.7-18.3,23.9-24c10.2-5.8,21.9-8.7,34.9-8.7c12.8,0,24.4,2.9,34.5,8.7c10.2,5.8,18.1,13.8,23.9,24
		c5.8,10.2,8.7,22,8.7,35.1c0,13-2.8,24.6-8.5,34.9c-5.7,10.2-13.6,18.3-23.8,24c-10.2,5.8-21.8,8.7-34.8,8.7
		C261.4,191.5,249.8,188.7,239.5,182.9z M296.8,163.7c6.6-3.9,11.7-9.3,15.4-16.2c3.7-6.9,5.5-14.8,5.5-23.5
		c0-8.8-1.8-16.7-5.5-23.7c-3.7-7-8.8-12.4-15.4-16.3c-6.6-3.9-14-5.9-22.3-5.9c-8.3,0-15.7,2-22.3,5.9c-6.6,3.9-11.8,9.4-15.5,16.3
		c-3.7,7-5.6,14.9-5.6,23.7c0,8.8,1.9,16.6,5.6,23.5c3.7,6.9,8.9,12.3,15.5,16.2c6.6,3.9,14,5.9,22.3,5.9
		C282.7,169.6,290.2,167.6,296.8,163.7z"/>
	<path id="o2" class="st1" d="M395.2,182.9c-10.2-5.8-18.2-13.8-23.9-24c-5.7-10.2-8.5-21.9-8.5-34.9c0-13.2,2.8-24.9,8.5-35.1
		c5.7-10.2,13.7-18.3,23.9-24c10.2-5.8,21.9-8.7,34.9-8.7c12.8,0,24.4,2.9,34.5,8.7c10.2,5.8,18.1,13.8,23.9,24
		c5.8,10.2,8.7,22,8.7,35.1c0,13-2.8,24.6-8.5,34.9c-5.7,10.2-13.6,18.3-23.8,24c-10.2,5.8-21.8,8.7-34.8,8.7
		C417.1,191.5,405.5,188.7,395.2,182.9z M452.5,163.7c6.6-3.9,11.7-9.3,15.4-16.2c3.7-6.9,5.5-14.8,5.5-23.5
		c0-8.8-1.8-16.7-5.5-23.7c-3.7-7-8.8-12.4-15.4-16.3c-6.6-3.9-14-5.9-22.3-5.9s-15.7,2-22.3,5.9c-6.6,3.9-11.8,9.4-15.5,16.3
		c-3.7,7-5.6,14.9-5.6,23.7c0,8.8,1.9,16.6,5.6,23.5c3.7,6.9,8.9,12.3,15.5,16.2c6.6,3.9,14,5.9,22.3,5.9S445.9,167.6,452.5,163.7z"
		/>
	<path id="l" class="st1" d="M536.1,184.8c-5.6-3.8-10-9.2-13.1-16.1c-3.1-6.9-4.6-14.7-4.6-23.3V12.2c0-3.6,1.1-6.5,3.4-8.8
		c2.3-2.3,5.2-3.4,8.8-3.4c3.6,0,6.5,1.1,8.8,3.4c2.3,2.3,3.4,5.2,3.4,8.8v133.2c0,6,1.1,11,3.4,14.9c2.3,3.9,5.2,5.9,8.8,5.9h6.1
		c3.3,0,5.9,1.1,7.9,3.4c2,2.3,3,5.2,3,8.8c0,3.6-1.5,6.5-4.6,8.8c-3.1,2.3-7.1,3.4-12,3.4H555C548,190.6,541.7,188.7,536.1,184.8z"
		/>
	<path id="a" class="st1" d="M682.8,65c10.2,5.9,18.2,14.1,24.2,24.4c5.9,10.3,8.9,21.8,8.9,34.5v73.4c0,3.6-1.2,6.6-3.5,8.9
		c-2.4,2.4-5.3,3.5-8.9,3.5c-3.6,0-6.5-1.2-8.9-3.5c-2.4-2.4-3.5-5.3-3.5-8.9v-28c-5.7,7-12.6,12.4-20.7,16.3
		c-8.1,3.9-16.9,5.9-26.4,5.9c-11.7,0-22.3-2.9-31.8-8.8s-17-13.9-22.4-24.3c-5.5-10.3-8.2-21.8-8.2-34.5s2.9-24.2,8.8-34.5
		C596,79.1,604.1,71,614.4,65c10.3-5.9,21.8-8.9,34.3-8.9C661.2,56.1,672.6,59.1,682.8,65z M670.8,163.6c6.6-4,11.8-9.4,15.5-16.3
		c3.7-6.9,5.6-14.7,5.6-23.3c0-8.6-1.9-16.4-5.6-23.4c-3.7-7-8.9-12.5-15.5-16.5c-6.6-4-13.9-6-22.1-6c-8.1,0-15.5,2-22.1,6
		c-6.6,4-11.8,9.5-15.6,16.5c-3.8,7-5.7,14.8-5.7,23.4c0,8.6,1.9,16.4,5.7,23.3c3.8,6.9,9,12.4,15.6,16.3c6.6,4,13.9,6,22.1,6
		C656.8,169.6,664.2,167.6,670.8,163.6z"/>
	<path id="h" class="st1" d="M838.5,63.2c8.9,4.9,15.9,12,21,21.4c5,9.4,7.6,20.6,7.6,33.8v67c0,3.6-1.2,6.6-3.5,8.9
		c-2.4,2.4-5.3,3.5-8.9,3.5c-3.6,0-6.6-1.2-8.9-3.5c-2.4-2.4-3.5-5.3-3.5-8.9v-67c0-13.2-3.5-23.1-10.6-29.9
		c-7.1-6.7-16.5-10.1-28.2-10.1c-6.8,0-13.1,1.4-18.7,4.1c-5.6,2.8-10,6.5-13.2,11.2c-3.2,4.7-4.8,10-4.8,15.9v87.8
		c0,3.6-1.1,6.6-3.4,8.9c-2.3,2.4-5.3,2.5-9,2.5c-3.6,0-6.5-0.2-8.9-2.5c-2.4-2.4-3.5-5.3-3.5-8.9V12.4c0-3.7,1.2-6.7,3.5-9
		c2.4-2.3,5.3-3.4,8.9-3.4c3.7,0,6.7,1.1,9,3.4c2.3,2.3,3.4,5.3,3.4,9v59.8c5.2-5.2,11.4-9.2,18.5-12.1c7.2-2.8,14.8-4.3,22.9-4.3
		C819.5,55.9,829.6,58.3,838.5,63.2z"/>
</g>
<g class="st0">
	<g class="st2">
		<path d="M225,58.4c-35.6,0-64.5,28.9-64.5,64.5c0,35.6,28.9,64.5,64.5,64.5s64.5-28.9,64.5-64.5C289.5,87.3,260.7,58.4,225,58.4z"
			/>
	</g>
</g>
<text transform="matrix(1 0 0 1 42.3552 192.0349)" class="st0 st3 st4">vault</text>
<g>
	<path class="st5" d="M172.8,63.4c1.1,1.7,1.7,3.6,1.7,5.8c0,1.5-0.4,3-1.2,4.7l-52.1,109.8c-2.5,5.4-6.2,8.1-11.3,8.1
		c-2.8,0-5.1-0.6-6.9-1.8c-1.8-1.2-3.4-3.3-4.9-6.3L46,73.9c-0.7-1.3-1-2.8-1-4.4c0-4.4,2.3-7.8,6.9-10.1c1.5-0.8,3.2-1.2,5.2-1.2
		s3.8,0.5,5.7,1.6c1.8,1.1,3.2,2.6,4.2,4.5l42.7,92.1l42.3-92.1c1-2,2.4-3.5,4.3-4.5c1.9-1.1,3.9-1.6,6-1.6c2.1,0,4,0.4,5.7,1.2
		C170,60.3,171.7,61.7,172.8,63.4z"/>
	<path class="st6" d="M289.4,65.6c10.2,6,18.3,14.2,24.3,24.6c6,10.4,9,22,9,34.8v54.8c0,3.6-1.2,6.6-3.6,9c-2.4,2.4-5.4,3.6-9,3.6
		c-3.6,0-6.6-1.2-9-3.6c-2.4-2.4-3.6-5.4-3.6-9v-9.1c-5.7,7-12.7,12.5-20.9,16.5c-8.2,3.9-17,5.9-26.5,5.9
		c-11.8,0-22.5-2.9-32.1-8.8c-9.6-5.9-17.1-14-22.6-24.4c-5.5-10.4-8.2-22-8.2-34.8c0-12.8,2.9-24.4,8.8-34.8
		c5.9-10.4,14-18.6,24.4-24.6c10.4-6,21.9-9,34.5-9C267.7,56.7,279.2,59.7,289.4,65.6z M277.4,164.9c6.6-4,11.8-9.5,15.6-16.5
		c3.8-7,5.7-14.8,5.7-23.5c0-8.7-1.9-16.5-5.7-23.6c-3.8-7-9-12.6-15.6-16.6c-6.6-4-14-6-22.2-6c-8.2,0-15.6,2-22.2,6
		c-6.6,4-11.9,9.5-15.7,16.6c-3.9,7-5.8,14.9-5.8,23.6c0,8.7,1.9,16.5,5.8,23.5c3.8,7,9.1,12.4,15.7,16.5c6.6,4,14,6,22.2,6
		C263.3,170.9,270.7,168.9,277.4,164.9z"/>
	<path class="st5" d="M479.9,60.8c2.3,2.3,3.4,5.3,3.4,9.1v109.6c0,3.6-1.1,6.6-3.4,9c-2.3,2.4-5.3,3.6-9.1,3.6
		c-3.6,0-6.6-1.2-9-3.6c-2.4-2.4-3.6-5.4-3.6-9v-2.7c-5.2,5.2-11.5,9.3-18.7,12.2c-7.2,2.9-14.9,4.3-23.1,4.3
		c-11.3,0-21.5-2.5-30.5-7.4c-9-4.9-16.1-12.1-21.1-21.5c-5.1-9.4-7.6-20.8-7.6-34V69.9c0-3.6,1.2-6.6,3.6-9c2.4-2.4,5.4-3.6,9-3.6
		c3.6,0,6.6,1.2,9,3.6c2.4,2.4,3.6,5.4,3.6,9v60.4c0,13.3,3.6,23.3,10.7,30.1c7.1,6.8,16.6,10.2,28.4,10.2c6.9,0,13.1-1.4,18.8-4.2
		c5.7-2.8,10.1-6.5,13.3-11.3c3.2-4.7,4.8-10.1,4.8-16V69.9c0-3.8,1.2-6.8,3.6-9.1c2.4-2.3,5.4-3.4,9-3.4
		C474.6,57.4,477.6,58.5,479.9,60.8z"/>
	<path class="st5" d="M540.5,186.3c-5.7-3.8-10-9.3-13.1-16.2c-3.1-7-4.7-14.8-4.7-23.5V12.4c0-3.6,1.1-6.5,3.4-8.8
		c2.3-2.3,5.2-3.4,8.8-3.4c3.6,0,6.5,1.1,8.8,3.4c2.3,2.3,3.4,5.2,3.4,8.8v134.1c0,6.1,1.1,11.1,3.4,15c2.3,3.9,5.2,5.9,8.8,5.9h6.1
		c3.3,0,5.9,1.1,8,3.4c2,2.3,3.1,5.2,3.1,8.8c0,3.6-1.6,6.6-4.7,8.8c-3.1,2.3-7.1,3.4-12,3.4h-0.5
		C552.5,192,546.1,190.1,540.5,186.3z"/>
	<path class="st5" d="M666,170.9c2,2.3,3.1,5.2,3.1,8.8c0,3.6-1.4,6.6-4.1,8.8c-2.7,2.3-6.2,3.4-10.4,3.4h-4.4c-8,0-15.4-2.1-22-6.3
		s-11.8-9.9-15.6-17.1c-3.8-7.2-5.7-15.3-5.7-24.3V83.7h-11.3c-3.4,0-6.2-1-8.4-2.9c-2.1-2-3.2-4.4-3.2-7.4c0-3.3,1.1-5.9,3.2-7.9
		c2.1-2,4.9-2.9,8.4-2.9h11.3V27.2c0-3.6,1.1-6.5,3.4-8.8c2.3-2.3,5.2-3.4,8.8-3.4c3.6,0,6.5,1.1,8.8,3.4c2.3,2.3,3.4,5.2,3.4,8.8
		v35.4h20.9c3.4,0,6.2,1,8.4,2.9c2.1,2,3.2,4.6,3.2,7.9c0,2.9-1.1,5.4-3.2,7.4c-2.1,2-4.9,2.9-8.4,2.9h-20.9v60.7
		c0,6.6,1.8,12,5.4,16.5c3.6,4.4,8,6.6,13.3,6.6h8.4C661.5,167.5,664,168.6,666,170.9z"/>
</g>
<g>
	<g class="st0">
		<g class="st2">
			<path class="st5" d="M256.5,60.4c-34.2,0-62,27.8-62,62c0,34.2,27.8,62,62,62s62-27.8,62-62C318.5,88.2,290.8,60.4,256.5,60.4z
				 M296.7,162.6c-5.2,5.2-11.3,9.3-18.1,12.2c-7,3-14.4,4.5-22.1,4.5s-15.1-1.5-22.1-4.5c-6.8-2.9-12.8-7-18.1-12.2
				s-9.3-11.3-12.2-18.1c-3-7-4.5-14.4-4.5-22.1c0,1.4,1.2,2.6,2.6,2.6c1.4,0,2.6-1.2,2.6-2.6s-1.2-2.6-2.6-2.6
				c-1.4,0-2.6,1.2-2.6,2.6c0-7.7,1.5-15.1,4.5-22.1c2.9-6.8,7-12.8,12.2-18.1c5.2-5.2,11.3-9.3,18.1-12.2c7-3,14.4-4.5,22.1-4.5
				s15.1,1.5,22.1,4.5c6.8,2.9,12.8,7,18.1,12.2c5.2,5.2,9.3,11.3,12.2,18.1c3,7,4.5,14.4,4.5,22.1s-1.5,15.1-4.5,22.1
				C306,151.3,301.9,157.4,296.7,162.6z"/>
		</g>
	</g>
	<g class="st0">
		<g class="st2">
			<path class="st5" d="M256.5,65.6c-1.4,0-2.6,1.2-2.6,2.6s1.2,2.6,2.6,2.6s2.6-1.2,2.6-2.6S258,65.6,256.5,65.6z"/>
		</g>
	</g>
	<g class="st0">
		<g class="st2">
			<path class="st5" d="M256.5,174.1c-1.4,0-2.6,1.2-2.6,2.6s1.2,2.6,2.6,2.6s2.6-1.2,2.6-2.6S258,174.1,256.5,174.1z"/>
		</g>
	</g>
	<g class="st0">
		<g class="st2">
			<path class="st5" d="M310.8,119.8c-1.4,0-2.6,1.2-2.6,2.6s1.2,2.6,2.6,2.6c1.4,0,2.6-1.2,2.6-2.6S312.2,119.8,310.8,119.8z"/>
		</g>
	</g>
	<g class="st0">
		<g class="st2">
			<path class="st5" d="M304.8,147.3c-1.2-0.7-2.7-0.3-3.4,0.8c4.3-7.6,6.8-16.3,6.8-25.7s-2.5-18.1-6.8-25.7
				c0.7,1.1,2.2,1.5,3.4,0.8c1.2-0.7,1.7-2.3,0.9-3.5c-0.7-1.2-2.3-1.7-3.5-0.9c-1.2,0.7-1.6,2.2-1,3.4c-4.5-7.8-11-14.2-18.8-18.8
				c1.2,0.6,2.7,0.2,3.4-1c0.7-1.2,0.3-2.8-0.9-3.5c-1.2-0.7-2.8-0.3-3.5,0.9c-0.7,1.2-0.3,2.7,0.8,3.4c-7.6-4.3-16.3-6.8-25.7-6.8
				s-18.1,2.5-25.7,6.8c1.1-0.7,1.5-2.3,0.8-3.4c-0.7-1.2-2.3-1.7-3.5-0.9c-1.2,0.7-1.7,2.3-0.9,3.5c0.7,1.2,2.2,1.6,3.4,1
				c-7.8,4.5-14.2,11-18.8,18.8c0.6-1.2,0.2-2.7-1-3.4c-1.2-0.7-2.8-0.3-3.5,0.9c-0.7,1.2-0.3,2.8,0.9,3.5c1.2,0.7,2.7,0.3,3.4-0.8
				c-4.3,7.6-6.8,16.3-6.8,25.7s2.5,18.1,6.8,25.7c-0.7-1.1-2.3-1.5-3.4-0.8c-1.2,0.7-1.7,2.3-0.9,3.5c0.7,1.2,2.3,1.7,3.5,0.9
				c1.2-0.7,1.6-2.2,1-3.4c4.5,7.8,11,14.2,18.8,18.8c-1.2-0.6-2.7-0.2-3.4,1c-0.7,1.2-0.3,2.8,0.9,3.5c1.2,0.7,2.8,0.3,3.5-0.9
				c0.7-1.2,0.3-2.7-0.8-3.4c7.6,4.3,16.3,6.8,25.7,6.8s18.1-2.5,25.7-6.8c-1.1,0.7-1.5,2.2-0.8,3.4c0.7,1.2,2.3,1.7,3.5,0.9
				c1.2-0.7,1.7-2.3,0.9-3.5c-0.7-1.2-2.2-1.6-3.4-1c7.8-4.5,14.2-11,18.8-18.8c-0.6,1.2-0.2,2.7,1,3.4c1.2,0.7,2.8,0.3,3.5-0.9
				C306.5,149.6,306,148,304.8,147.3z M299.4,140.5c-2.3,5.5-5.7,10.5-10,14.8s-9.2,7.6-14.8,10c-5.7,2.4-11.8,3.7-18.1,3.7
				s-12.4-1.2-18.1-3.7c-5.5-2.3-10.5-5.7-14.8-10s-7.6-9.2-10-14.8c-2.4-5.7-3.7-11.8-3.7-18.1c0-6.3,1.2-12.4,3.7-18.1
				c2.3-5.5,5.7-10.5,10-14.8s9.2-7.6,14.8-10c5.7-2.4,11.8-3.7,18.1-3.7s12.4,1.2,18.1,3.7c5.5,2.3,10.5,5.7,14.8,10
				s7.6,9.2,10,14.8c2.4,5.7,3.7,11.8,3.7,18.1C303,128.7,301.8,134.8,299.4,140.5z"/>
		</g>
	</g>
	<circle class="st6" cx="255.1" cy="124.8" r="47.9"/>
	<g>
		<g>
			<path class="st5" d="M287.1,140.3l-13.6-7.8c1-2.5,1.6-5.2,1.6-8s-0.6-5.6-1.6-8l13.6-7.8v0c1.2-0.7,1.7-2.3,0.9-3.5
				s-2.3-1.7-3.5-0.9l-13.6,7.8c-3.3-4.3-8.2-7.3-13.9-8V88.2c0-1.4-1.2-2.6-2.6-2.6s-2.6,1.2-2.6,2.6v15.7
				c-5.7,0.7-10.6,3.7-13.9,8l-13.6-7.8c-1.2-0.7-2.8-0.3-3.5,0.9c-0.7,1.2-0.3,2.8,0.9,3.5l13.6,7.8c-1,2.5-1.6,5.2-1.6,8
				c0,2.8,0.6,5.6,1.6,8l-13.6,7.8c-1.2,0.7-1.7,2.3-0.9,3.5s2.3,1.7,3.5,0.9l13.6-7.8c3.3,4.3,8.2,7.3,13.9,8v15.7
				c0,1.4,1.2,2.6,2.6,2.6s2.6-1.2,2.6-2.6v-15.7c5.7-0.7,10.6-3.7,13.9-8l13.6,7.8c0,0,0,0,0,0c1.2,0.7,2.8,0.3,3.5-0.9
				S288.4,141,287.1,140.3z M254.5,139.9c-8.5,0-15.5-7-15.5-15.5c0-8.5,7-15.5,15.5-15.5s15.5,7,15.5,15.5
				C270,132.9,263.1,139.9,254.5,139.9z"/>
		</g>
	</g>
	<g class="st0">
		<g class="st2">
			<path class="st5" d="M254.5,121.8c-1.4,0-2.6,1.2-2.6,2.6s1.2,2.6,2.6,2.6s2.6-1.2,2.6-2.6S256,121.8,254.5,121.8z"/>
		</g>
	</g>
</g>
<path class="st5" d="M313.7,90.2c-6-10.4-14.1-18.6-24.3-24.6c-10.2-6-21.7-9-34.3-9c-12.6,0-24.1,3-34.5,9
	c-10.4,6-18.5,14.2-24.4,24.6c-5.9,10.4-8.8,22-8.8,34.8c0,12.8,2.7,24.4,8.2,34.8c5.5,10.4,13,18.5,22.6,24.4
	c9.6,5.9,20.3,8.8,32.1,8.8c9.5,0,18.3-2,26.5-5.9c8.2-3.9,15.1-9.4,20.9-16.5v9.1c0,3.6,1.2,6.6,3.6,9c2.4,2.4,5.4,3.6,9,3.6
	c3.6,0,6.6-1.2,9-3.6c2.4-2.4,3.6-5.4,3.6-9V125C322.7,112.2,319.7,100.6,313.7,90.2z M255.1,172.7c-26.4,0-47.9-21.4-47.9-47.9
	s21.4-47.9,47.9-47.9S303,98.4,303,124.8S281.5,172.7,255.1,172.7z"/>
<g class="st0">
	<g class="st2">
		<path class="st7" d="M229.9,99.7c-13.9,13.9-13.9,36.4,0,50.3c22.4,22.4,60.7,6.3,60.7-25.1C290.6,92.9,252,77.5,229.9,99.7z
			 M285,122.1h-11c-0.5-3.2-1.7-6.2-3.6-8.7l7.8-7.8C282.1,110.2,284.5,116,285,122.1z M257.8,94.8c6.1,0.5,11.8,2.9,16.5,6.8
			l-7.8,7.8c-2.5-1.9-5.4-3.1-8.7-3.6V94.8L257.8,94.8z M231.9,105.5l7.8,7.8c-1.9,2.5-3.1,5.4-3.6,8.7h-11
			C225.6,116,228,110.2,231.9,105.5z M225.1,127.5h11c0.5,3.2,1.7,6.2,3.6,8.7l-7.8,7.8C228,139.4,225.6,133.6,225.1,127.5z
			 M252.3,154.8c-6.1-0.5-11.8-2.9-16.5-6.8l7.8-7.8c2.5,1.9,5.4,3.1,8.7,3.6V154.8z M252.8,138.3c-10.8-1.8-15.3-15.2-7.4-23.2
			c1-1,1.1-2.6,0.2-3.7l-9.7-9.7c4.7-3.9,10.4-6.3,16.5-6.8v13.8c0,0,0,0,0,0c0.1,1.4,1.3,2.5,2.7,2.5c8.5,0,14.9,7.7,13.5,16
			C267.3,134.5,260.2,139.5,252.8,138.3z M257.8,154.8v-11c3.2-0.5,6.2-1.7,8.7-3.6l7.8,7.8C269.6,151.9,263.9,154.2,257.8,154.8z
			 M278.2,144.1l-7.8-7.8c1.9-2.5,3.1-5.5,3.6-8.7h11C284.5,133.6,282.1,139.4,278.2,144.1z"/>
	</g>
</g>
</svg>
