<?xml version="1.0" encoding="utf-8"?>
<!-- Generator: Adobe Illustrator 22.0.1, SVG Export Plug-In . SVG Version: 6.00 Build 0)  -->
<svg version="1.1" id="Capa_1" xmlns="http://www.w3.org/2000/svg" xmlns:xlink="http://www.w3.org/1999/xlink" x="0px" y="0px"
	 viewBox="0 0 512 512" style="enable-background:new 0 0 512 512;" xml:space="preserve">
<style type="text/css">
	.st0{fill:url(#SVGID_1_);}
	.st1{fill:url(#SVGID_2_);}
	.st2{fill:url(#SVGID_3_);}
	.st3{fill:url(#SVGID_4_);}
</style>
<g>
	<g>
		<linearGradient id="SVGID_1_" gradientUnits="userSpaceOnUse" x1="138.932" y1="285.692" x2="153.072" y2="299.832">
			<stop  offset="0" style="stop-color:#CC0465"/>
			<stop  offset="1" style="stop-color:#321575"/>
		</linearGradient>
		<path class="st0" d="M153.1,285.7c-1.9-1.9-4.4-2.9-7.1-2.9c-2.6,0-5.2,1.1-7.1,2.9s-2.9,4.4-2.9,7.1c0,2.6,1.1,5.2,2.9,7.1
			s4.4,2.9,7.1,2.9s5.2-1.1,7.1-2.9s2.9-4.4,2.9-7.1C156,290.1,154.9,287.6,153.1,285.7z"/>
	</g>
</g>
<g>
	<g>
		<linearGradient id="SVGID_2_" gradientUnits="userSpaceOnUse" x1="52.4274" y1="145.1003" x2="411.6777" y2="504.3507">
			<stop  offset="0" style="stop-color:#CC0465"/>
			<stop  offset="1" style="stop-color:#321575"/>
		</linearGradient>
		<path class="st1" d="M512,295c0-22.5-16.2-41.2-37.5-45.2c5.4-7.6,8.6-16.8,8.6-26.8c0-25.4-20.6-46-46-46H324.2l16.7-49.4
			c6.4-19.1,4.9-39.4-4.3-57.4c-9.2-17.9-24.9-31-44.2-36.8l-19.5-5.9c-5.1-1.5-10.5,1.2-12.3,6.2L230,118.2
			c-8.8,24.3-26.1,44.4-48.8,56.8l-31.4,17.1C143.4,183,132.9,177,121,177H35c-19.3,0-35,15.7-35,35v238c0,19.3,15.7,35,35,35h86
			c13.2,0,24.7-7.4,30.7-18.2l16.6,6.5c19.8,7.8,40.6,11.7,61.9,11.7H412c25.4,0,46-20.6,46-46c0-10.1-3.3-19.4-8.7-26.9
			c20.9-4.3,36.7-22.9,36.7-45.1c0-10.2-3.4-19.7-9-27.3C497,334.7,512,316.6,512,295z M466,321H364c-5.5,0-10,4.5-10,10
			s4.5,10,10,10h76c14.3,0,26,11.7,26,26s-11.7,26-26,26h-76c-5.5,0-10,4.5-10,10s4.5,10,10,10h48c14.3,0,26,11.7,26,26
			s-11.7,26-26,26H230.2c-18.8,0-37.1-3.5-54.6-10.3L156,447V326.3c0-5.5-4.5-10-10-10s-10,4.5-10,10V450c0,8.3-6.7,15-15,15H35
			c-8.3,0-15-6.7-15-15V212c0-8.3,6.7-15,15-15h5v119.9c0,5.5,4.5,10,10,10s10-4.5,10-10V197h61c8.3,0,15,6.7,15,15v39.8
			c0,5.5,4.5,10,10,10s10-4.5,10-10V212c0-0.2,0-0.3,0-0.5l34.8-18.9c27-14.7,47.6-38.7,58-67.5l27.4-75.7l10.4,3.2
			c14,4.3,25.5,13.8,32.2,26.9s7.8,27.9,3.2,41.8l-21.1,62.6c-1,3.1-0.5,6.4,1.4,9c1.9,2.6,4.9,4.2,8.1,4.2h126.8
			c14.3,0,26,11.7,26,26s-11.7,26-26,26H364c-5.5,0-10,4.5-10,10c0,5.5,4.5,10,10,10h37.2c0,0,0,0,0,0H466c14.3,0,26,11.7,26,26
			S480.3,321,466,321z"/>
	</g>
</g>
<g>
	<g>
		<linearGradient id="SVGID_3_" gradientUnits="userSpaceOnUse" x1="56.7968" y1="388.8828" x2="99.2032" y2="431.2892">
			<stop  offset="0" style="stop-color:#CC0465"/>
			<stop  offset="1" style="stop-color:#321575"/>
		</linearGradient>
		<path class="st2" d="M78,380.1c-16.5,0-30,13.5-30,30s13.5,30,30,30s30-13.5,30-30S94.5,380.1,78,380.1z M78,420.1
			c-5.5,0-10-4.5-10-10s4.5-10,10-10s10,4.5,10,10S83.5,420.1,78,420.1z"/>
	</g>
</g>
<g>
	<g>
		<linearGradient id="SVGID_4_" gradientUnits="userSpaceOnUse" x1="42.8899" y1="345.8299" x2="57.1101" y2="360.0501">
			<stop  offset="0" style="stop-color:#CC0465"/>
			<stop  offset="1" style="stop-color:#321575"/>
		</linearGradient>
		<path class="st3" d="M50,342.9c-5.5,0-10,4.5-10,10v0.2c0,5.5,4.5,10,10,10s10-4.5,10-10v-0.2C60,347.3,55.5,342.9,50,342.9z"/>
	</g>
</g>
</svg>
